Coordinates
version=1
nRows=13
nColumns=22
inDegrees=yes

Units are S.I. units (second, meters, Newtons, ...)
If the header above contains a line with 'inDegrees', this indicates whether rotational values are in degrees (yes) or radians (no).

endheader
time	pelvis_tilt	pelvis_list	pelvis_rotation	pelvis_tx	pelvis_ty	pelvis_tz	hip_flexion_r	hip_adduction_r	hip_rotation_r	knee_angle_r	ankle_angle_r	subtalar_angle_r	hip_flexion_l	hip_adduction_l	hip_rotation_l	knee_angle_l	ankle_angle_l	subtalar_angle_l	lumbar_extension	lumbar_bending	lumbar_rotation
      1.49000000	    -12.32256557	      3.21079139	    -38.91244125	     -0.91816932	      0.96812640	     -0.01420282	     14.00584889	     10.24775186	     -3.75507034	    -18.06817017	     21.04939219	    -10.45720213	     38.49017468	     -6.04390419	      1.55212275	    -54.23151144	     18.63902041	     -0.28250948	     -2.32363233	      6.78751151	      5.50654503
      1.50000000	    -12.25698090	      3.23777410	    -39.05329159	     -0.91620086	      0.96797522	     -0.01191478	     13.74841093	     10.23944138	     -3.58908912	    -18.03608701	     21.16959280	    -10.42232384	     39.02181495	     -6.05327980	      1.17233075	    -54.06772975	     18.73484567	     -0.44616704	     -2.45822612	      6.69398925	      5.72712819
      1.51000000	    -12.20156471	      3.25072620	    -39.16924683	     -0.91413182	      0.96777981	     -0.00962082	     13.48979530	     10.24086743	     -3.45170555	    -18.01006663	     21.30478420	    -10.38810149	     39.53024686	     -6.06342376	      0.80756180	    -53.74832911	     18.79173080	     -0.58812581	     -2.59955520	      6.61990729	      5.90857459
      1.52000000	    -12.15279046	      3.25432961	    -39.26754853	     -0.91195149	      0.96754475	     -0.00731137	     13.23026119	     10.24692159	     -3.32958427	    -17.99321815	     21.44670265	    -10.35006724	     40.01033432	     -6.06986129	      0.45646561	    -53.27933001	     18.81046969	     -0.70163421	     -2.74545957	      6.56062335	      6.06433279
      1.53000000	    -12.10553211	      3.24789023	    -39.34427281	     -0.90965975	      0.96726389	     -0.00499844	     12.96412953	     10.25458534	     -3.22384198	    -17.98240540	     21.60694847	    -10.30977519	     40.46595034	     -6.06130787	      0.13227408	    -52.68614722	     18.79382036	     -0.78023536	     -2.90422464	      6.51020603	      6.19244329
      1.54000000	    -12.05412540	      3.23018000	    -39.40027457	     -0.90720944	      0.96694990	     -0.00269106	     12.68444482	     10.25818373	     -3.14429575	    -17.97873701	     21.77812899	    -10.26626480	     40.88726853	     -6.03135055	     -0.16512517	    -51.97672795	     18.74760564	     -0.82516343	     -3.07495566	      6.47361011	      6.29609563
      1.55000000	    -11.99750344	      3.20089055	    -39.43476080	     -0.90462673	      0.96659985	     -0.00037350	     12.38930922	     10.26120028	     -3.07776471	    -17.98019249	     21.96880948	    -10.22612778	     41.27656593	     -5.97781437	     -0.42438134	    -51.16539025	     18.67738178	     -0.83225123	     -3.26134097	      6.44166352	      6.37402050
      1.56000000	    -11.91994478	      3.16225155	    -39.45755658	     -0.90188776	      0.96624037	      0.00194916	     12.06992184	     10.24938534	     -3.02228739	    -17.99583288	     22.17767777	    -10.18310652	     41.61588454	     -5.89584990	     -0.66490199	    -50.25750953	     18.59041139	     -0.79999393	     -3.47601747	      6.40814084	      6.44025916
      1.57000000	    -11.81415247	      3.10063170	    -39.47273381	     -0.89898490	      0.96589457	      0.00430794	     11.70699569	     10.22778280	     -3.00346237	    -18.01797674	     22.38659687	    -10.12239674	     41.89013853	     -5.79880947	     -0.89211694	    -49.26682018	     18.50794724	     -0.71051812	     -3.73321106	      6.37510406	      6.51439938
      1.58000000	    -11.72341725	      3.04348358	    -39.46943125	     -0.89595386	      0.96547357	      0.00668381	     11.35608319	     10.20965797	     -2.97446826	    -18.04687642	     22.62837583	    -10.08379295	     42.16146977	     -5.68041241	     -1.07619354	    -48.20780252	     18.40274601	     -0.58499597	     -3.97267727	      6.34967976	      6.55520020
      1.59000000	    -11.62451947	      2.98167699	    -39.46287047	     -0.89277379	      0.96502702	      0.00909612	     10.99183005	     10.18387729	     -2.95095617	    -18.08674505	     22.88426170	    -10.03685332	     42.39658979	     -5.54984332	     -1.24842747	    -47.08516212	     18.29733100	     -0.41747509	     -4.22250813	      6.32621953	      6.59254543
      1.60000000	    -11.52894479	      2.92076386	    -39.45471756	     -0.88945829	      0.96453783	      0.01156243	     10.62600987	     10.15532776	     -2.93655387	    -18.13465652	     23.15630362	     -9.97844099	     42.60935726	     -5.41451249	     -1.41080833	    -45.90940265	     18.18314383	     -0.22030286	     -4.46713604	      6.30360443	      6.62919640
      1.61000000	    -11.43254678	      2.84273747	    -39.45067111	     -0.88600581	      0.96403654	      0.01409283	     10.23160721	     10.13916067	     -2.90240098	    -18.17035110	     23.42409534	     -9.87093822	     42.78565549	     -5.29213451	     -1.56687534	    -44.69348801	     18.07536161	      0.04504989	     -4.72476077	      6.29711886	      6.66104453
